<svg xmlns="http://www.w3.org/2000/svg" viewBox="0 0 181.01 384.5"><defs><style>.cls-1{fill:#fff;}</style></defs><title>资源 1</title><g id="图层_2" data-name="图层 2"><g id="学"><path class="cls-1" d="M82.43,251.12c-11,32.5-37.81,23-37.81,23Z" transform="translate(0)"/><path class="cls-1" d="M53.4,277a30.44,30.44,0,0,1-9.29-1.38l-3-1.06,44.08-26.83-1.33,3.93c-3.72,11-9.64,18.58-17.6,22.46A29.32,29.32,0,0,1,53.4,277Zm-4.84-3.44A27.65,27.65,0,0,0,65,271.33c6.19-3,11-8.61,14.47-16.63Z" transform="translate(0)"/><path class="cls-1" d="M113.2,0a158.81,158.81,0,0,0-10.06,15.7c-3,5.24-5.58,10.52-8,15.85C90.18,42.22,85.92,53,81.81,63.93,73.66,85.75,66.2,108,58.5,130.31S43,175.2,34.11,197.74q-6.6,16.9-14.14,33.82Q16.16,240,12,248.46c-2.82,5.64-5.69,11.27-9,16.9a155.6,155.6,0,0,1-2.4-19.12q-.66-9.51-.62-19A320.47,320.47,0,0,1,2.39,189.8a357.16,357.16,0,0,1,16.85-73,317.13,317.13,0,0,1,14.45-35C35.1,78.87,36.51,76,38,73.21s3.08-5.61,4.65-8.4c3.25-5.53,6.68-11,10.4-16.28a181.42,181.42,0,0,1,12-15.38A148.86,148.86,0,0,1,79,19.16,106.35,106.35,0,0,1,95,7.49,65,65,0,0,1,113.2,0Z" transform="translate(0)"/><path class="cls-1" d="M3,265.36a94,94,0,0,1-1.11-16.27c0-1.35.06-2.69.13-4s.14-2.69.24-4c.22-2.69.54-5.35.88-8a147.05,147.05,0,0,1,8.08-31.27,157.62,157.62,0,0,1,14.43-29.13c.72-1.16,1.42-2.33,2.16-3.47s1.55-2.23,2.33-3.35c1.55-2.25,3.17-4.44,4.79-6.64s3.44-4.23,5.17-6.34c.87-1,1.75-2.1,2.66-3.12l2.79-3,5.67-5.91,6-5.53,3.06-2.71c1-.9,2.1-1.74,3.16-2.59,2.16-1.68,4.25-3.43,6.5-5a160,160,0,0,1,28.13-16.41,146.93,146.93,0,0,1,30.74-10.08,130.77,130.77,0,0,1,16-2.23,92.66,92.66,0,0,1,16.31.16c-4,3.8-8,7.21-12,10.61l-11.58,9.89c-7.58,6.49-14.85,12.87-21.93,19.2s-13.89,12.7-20.51,19.17c-1.67,1.59-3.3,3.23-4.93,4.86-.8.83-1.67,1.59-2.46,2.42l-2.38,2.5L80.62,170l-4.69,5-2.39,2.48c-.78.84-1.51,1.73-2.29,2.57-1.54,1.7-3.07,3.42-4.64,5.09s-3,3.51-4.53,5.22c-.76.87-1.54,1.72-2.3,2.6s-1.47,1.77-2.21,2.66c-6.06,7-11.86,14.34-17.78,21.8S28,232.58,22,240.57c-1.47,2-3,4-4.54,6s-3.08,4.07-4.61,6.15C9.7,256.88,6.58,261.11,3,265.36Z" transform="translate(0)"/><path class="cls-1" d="M3,265.36a84.16,84.16,0,0,1,7.21-26.12,113.83,113.83,0,0,1,13.72-23A133.12,133.12,0,0,1,64.6,181.39c4-2.1,8-4.23,12.1-6,2.08-.86,4.14-1.78,6.24-2.56s4.24-1.52,6.38-2.2a129.48,129.48,0,0,1,26.28-5.5c2.23-.21,4.47-.34,6.69-.49s4.48-.09,6.71-.08c1.11,0,2.24.06,3.35.11s2.23.1,3.35.19c2.23.14,4.46.43,6.68.7s4.43.71,6.63,1.13,4.39,1,6.56,1.6a71.63,71.63,0,0,1,12.82,4.91c-4,2.51-7.87,4.58-11.67,6.65-1.89,1-3.77,2-5.63,3s-3.7,1.93-5.52,2.89L124.4,196.66l-20.11,10.48c-1.63.91-3.29,1.74-4.92,2.6l-4.88,2.65c-.81.44-1.64.84-2.45,1.28L89.64,215c-1.62.88-3.26,1.72-4.85,2.64-12.88,7.17-25.57,14.6-38.78,22.53L25.63,252.5l-5.35,3.18c-1.82,1.06-3.62,2.15-5.5,3.22C11,261.05,7.23,263.26,3,265.36Z" transform="translate(0)"/><path class="cls-1" d="M4.48,384.5a180.87,180.87,0,0,1-3.26-24.9c-.3-4.19-.44-8.39-.49-12.6s.05-8.44.29-12.66A167.92,167.92,0,0,1,4.29,309c.91-4.19,2-8.37,3.32-12.51a108.11,108.11,0,0,1,4.81-12.21L13,283l1.28-.86,9.78-6.61L33.92,269c3.27-2.19,6.57-4.33,9.87-6.48s6.65-4.21,10-6.25q20.15-12.31,41-23.41t42.39-20.74c7.19-3.19,14.41-6.31,21.72-9.22s14.67-5.7,22.11-8.26c-13.46,8.19-27,16-40.52,23.91s-27,15.81-40.36,23.79-26.74,16.05-40,24.21l-10,6.14c-3.28,2.1-6.55,4.22-9.85,6.29l-9.9,6.23-9.94,6.15,1.88-2.13c-1.77,3.47-3.42,7-4.87,10.74s-2.68,7.5-3.81,11.35-2.08,7.79-2.95,11.76-1.6,8-2.25,12c-1.27,8.08-2.21,16.26-2.85,24.49S4.56,376.15,4.48,384.5Z" transform="translate(0)"/><path class="cls-1" d="M14.55,303.37c3-1.57,6-3,9.06-4.37s6.07-2.73,9.09-4.08c6.06-2.65,12.12-5.21,18.16-7.76L69,279.63c6-2.51,12-4.93,17.41-7.68a77.78,77.78,0,0,0,7.79-4.48,72.37,72.37,0,0,0,7.12-5.39,80.84,80.84,0,0,0,6.56-6.3c1.07-1.13,2.11-2.31,3.17-3.51s2.12-2.41,3.18-3.65l6.43-7.42q3.18-3.7,6.35-7.48l6.35-7.59c2.12-2.56,4.24-5.13,6.47-7.69a95.66,95.66,0,0,1-3.18,9.61c-1.2,3.15-2.55,6.24-4,9.29s-3,6-4.64,9c-.81,1.48-1.67,2.93-2.53,4.38s-1.7,2.86-2.61,4.27-1.8,2.84-2.74,4.27-1.95,2.83-3,4.24a70.08,70.08,0,0,1-7,8.09,66.69,66.69,0,0,1-8.29,7,73.28,73.28,0,0,1-9.27,5.55,140.89,140.89,0,0,1-19.08,7.61c-3.18,1-6.36,2.06-9.58,3s-6.43,1.79-9.67,2.6c-6.5,1.59-13,3-19.65,4-3.31.52-6.63,1-10,1.32S17.93,303.28,14.55,303.37Z" transform="translate(0)"/><path class="cls-1" d="M11.88,353.31c2.83-2.37,5.73-4.47,8.66-6.5s5.88-4,8.85-5.84q8.93-5.58,18-10.45c6.07-3.27,12.27-6.34,18.35-9.26l18.11-8.63,18-8.61c6-2.91,12-5.68,17.28-8.62,10.45-5.58,19.41-14.71,27.68-26.78a42,42,0,0,1-.35,11.07,51.58,51.58,0,0,1-3,10.94A53.69,53.69,0,0,1,138.11,301,57,57,0,0,1,130.4,310a88.88,88.88,0,0,1-8.73,7.32c-3,2.19-5.94,4.2-9,6.1a173,173,0,0,1-18.77,10.34,189.81,189.81,0,0,1-19.77,8c-6.69,2.28-13.35,4.2-20.15,5.88s-13.69,3-20.69,4.06c-3.51.5-7,.9-10.61,1.19A102.18,102.18,0,0,1,11.88,353.31Z" transform="translate(0)"/><path class="cls-1" d="M11.43,353.51c2.79-1.63,5.59-2.95,8.38-4.23s5.58-2.47,8.38-3.58c5.58-2.22,11.16-4.2,16.74-6,11.15-3.6,22.3-6.53,33.51-9.12l4.21-.95,2.15-.46c.8-.17,1.59-.34,2.34-.48,3-.56,5.73-1,8.38-1.45a126,126,0,0,0,15.19-3.49c2.48-.76,5-1.65,7.6-2.6s5.13-2,7.73-3.17,5.24-2.37,7.92-3.69,5.38-2.74,8.28-4.14a44,44,0,0,1-3.72,8.8,56.81,56.81,0,0,1-5.28,8,61.68,61.68,0,0,1-6.59,7.14,63.24,63.24,0,0,1-7.73,6.15A69.63,69.63,0,0,1,101,348.78c-3,1-6.12,1.78-8.82,2.49l-4.11,1.07-4.39,1.06a174.86,174.86,0,0,1-35.77,4.43,147.86,147.86,0,0,1-18.18-.78c-3-.33-6.08-.76-9.13-1.33A75.66,75.66,0,0,1,11.43,353.51Z" transform="translate(0)"/></g></g></svg>